<?xml version="1.0" standalone="no"?><!DOCTYPE svg PUBLIC "-//W3C//DTD SVG 1.1//EN" "http://www.w3.org/Graphics/SVG/1.1/DTD/svg11.dtd"><svg t="1701246649128" class="icon" viewBox="0 0 1024 1024" version="1.1" xmlns="http://www.w3.org/2000/svg" p-id="5526" width="24" height="24" xmlns:xlink="http://www.w3.org/1999/xlink"><path d="M510.3894528 34.4549248c112.74269227 0 214.80916267 46.3494944 288.77428053 119.882368 74.005504 73.53178133 119.45121493 175.59716053 119.45121494 288.79174507 0 100.28400747-36.31290773 192.98081387-96.47785387 263.83508053-26.07547947 30.7570368-75.545648-8.46151467-47.9103776-41.0010144 48.12104213-56.59237973 77.08797547-128.79468267 81.0960608-204.1100192L736.338736 461.8530848c-1.35130987 51.6979744-8.4822528 100.27309227-19.83303893 145.2811008-7.34160747 28.52377387-43.66979627 17.8268128-37.44591147-6.2348 11.3693408-42.3403168 18.05821653-89.57504 19.387696-139.0463008-154.87016213 0-221.4783904 0-376.5777728 0 1.77263893 49.4712608 8.4593312 96.70598293 19.61909973 139.0463008 6.66813653 25.40091627-30.75922027 32.97720213-37.88797973 4.0091776-11.14012053-43.66979627-17.84645973-92.25364587-19.15847467-143.05547733L165.22690773 461.8530848c4.22093333 77.9939424 34.0720032 148.40177493 81.32746454 204.1100192 27.63745387 32.54059093-22.27805867 71.7580512-48.14178134 40.55567147C138.24546133 635.6568672 102.147584 543.41195307 102.147584 443.1279456c0-113.19458453 45.4631744-215.25887147 119.42938453-288.79174507C295.58247253 80.8044192 397.62711253 34.4549248 510.3894528 34.4549248L510.3894528 34.4549248zM386.09840853 705.77871893L386.09840853 705.77871893 386.09840853 540.4986688c0-17.8268128 14.05013013-31.19146453 31.62589227-31.19146453l0.69311893 0 185.61519147 0c17.38256107 0 31.4316 13.36465173 31.4316 31.19146453l0 0.8972352 0 164.3839072 94.47053653 0c17.38365333 0 31.18273173 13.8154528 31.18273174 31.19801387 0 8.91558933-3.1228576 16.48641813-8.90358294 22.28024106L532.93602667 978.52283947c-12.4696 12.479424-32.0712352 12.479424-44.55939094 0l-0.44206826-0.88632L269.09985387 759.25806613c-12.02753173-12.4805152-12.02753173-32.08760747 0-44.56594026 6.24353173-5.79164053 14.4911072-8.91231467 22.2977056-8.91231467l0.88632 0L386.09840853 705.7798112 386.09840853 705.77871893zM448.94523627 573.65597227L448.94523627 573.65597227l0 162.4246176 0 0.89614293c0 17.37601173-14.05013013 31.19146453-31.22093547 31.19146453l-50.56715307 0 143.4975456 143.95380374 143.50409494-143.95380374-49.45270507 0-0.673472 0c-17.59650027 0-31.43378347-13.8154528-31.43378347-31.19146453L572.5988288 573.65597227 448.94523627 573.65597227 448.94523627 573.65597227zM754.60761707 198.46007253L754.60761707 198.46007253c-2.6611424-2.67860587-5.3572128-5.3473888-8.46151467-8.02708693-15.1656704 11.14885333-31.19910507 21.39173867-48.12104213 30.30514453 22.4898144 58.38466667 36.53994453 128.36134613 38.31476693 203.2335232L855.32277653 423.97165333C850.87043947 336.62114453 813.00101547 257.28899093 754.60761707 198.46007253L754.60761707 198.46007253zM716.29394133 165.92930453L716.29394133 165.92930453c-21.85345387-16.04434987-45.01892373-30.3062368-70.41983893-41.0010144 9.78990187 13.36465173 19.15629227 27.18228693 27.40386667 42.33049387 3.7755904 6.244624 6.898448 12.479424 9.78990186 19.16720747C694.4393952 179.7371168 705.57842453 173.06133973 716.29394133 165.92930453L716.29394133 165.92930453zM567.43699947 102.19615787L567.43699947 102.19615787c-12.72065067-2.2256224-25.40091627-3.56492587-38.33332267-4.4599776l0 132.8136832c37.2156-2.22671467 73.10172053-9.81064107 106.0549088-21.83598934 4.70338773-2.2343552 9.8291968-4.01790933 14.26079467-5.80037226-3.1021184-5.79164053-5.78290773-12.02644053-9.13498667-17.37492054C619.79971413 148.10249173 595.07117867 119.12573547 567.43699947 102.19615787L567.43699947 102.19615787zM491.44382507 97.735088L491.44382507 97.735088c-12.69882027 0.89614293-25.63231893 2.2354464-38.33114027 4.4599776-27.40386667 16.9306688-52.36271467 45.90633493-72.86813333 83.3424224-3.10321067 5.34848-6.22715947 11.58328-8.92322987 17.37492053 4.91296107 1.78246293 9.36529813 3.56601707 14.25970347 5.80037227 32.99466667 12.02534827 68.41797973 19.60927573 105.8617088 21.83598933L491.44273387 97.735088 491.44382507 97.735088zM374.443088 124.92829013L374.443088 124.92829013c-24.9381088 10.6947776-48.56638507 24.95666453-70.1884352 41.0010144 10.71333333 7.1320352 21.62205013 13.8078112 33.20424 20.49559467 3.1228576-6.68778347 6.68778347-12.92258347 9.81064107-19.16720747C355.7506944 152.11057813 365.09525333 138.29294293 374.443088 124.92829013L374.443088 124.92829013zM274.6131552 190.4340768L274.6131552 190.4340768c-3.12067413 2.67860587-5.78181653 5.3473888-8.67108693 8.02708693-58.39449067 58.8289184-96.05325013 138.161072-100.71625174 225.5115808l119.21544534 0c1.7737312-74.872176 16.03452587-144.84885547 38.31367573-203.2335232C305.83409067 211.82472427 289.78100907 201.58183893 274.6131552 190.4340768L274.6131552 190.4340768zM664.1440736 237.23655573L664.1440736 237.23655573c-5.3572128 2.2256224-10.69696107 4.45124587-15.60992213 6.2337088-37.42626453 13.8187264-77.76144747 22.2878816-119.43047574 24.51350507l0 155.9878848 169.344896 0C696.6748416 354.89220907 684.18777707 290.71590187 664.1440736 237.23655573L664.1440736 237.23655573zM491.44382507 267.98376853L491.44382507 267.98376853c-41.6854016-2.22671467-81.77062507-10.6958688-119.21653654-24.51350506-5.33974827-1.78246293-10.46555733-4.00808533-15.82167786-6.2337088-20.04370347 53.47934613-32.30154667 117.65565333-34.53590187 186.73509866l169.57411627 0L491.44382507 267.98376853 491.44382507 267.98376853z" p-id="5527" fill="#000000"></path></svg>