<?xml version="1.0" standalone="no"?><!DOCTYPE svg PUBLIC "-//W3C//DTD SVG 1.1//EN" "http://www.w3.org/Graphics/SVG/1.1/DTD/svg11.dtd"><svg t="1696992169927" class="icon" viewBox="0 0 1024 1024" version="1.1" xmlns="http://www.w3.org/2000/svg" p-id="2064" width="24" height="24" xmlns:xlink="http://www.w3.org/1999/xlink"><path d="M545.621333 140.714667c-13.909333-31.146667-53.333333-31.146667-67.2 0L164.266667 845.141333c-8.533333 19.114667-3.370667 37.930667 8.021333 49.877334 11.178667 11.690667 26.453333 15.36 41.642667 7.253333l251.904-134.485333a97.664 97.664 0 0 1 92.373333 0l251.904 134.485333c15.189333 8.106667 30.464 4.437333 41.642667-7.253333 11.392-11.946667 16.512-30.72 7.978666-49.877334l-314.112-704.426666z m-125.653333-26.026667a99.754667 99.754667 0 0 1 184.106667 0l314.112 704.426667a108.629333 108.629333 0 0 1-20.181334 120.064c-28.117333 29.44-74.026667 43.093333-118.058666 19.584l-251.904-134.485334a33.664 33.664 0 0 0-32.085334 0L244.053333 958.72c-43.989333 23.466667-89.941333 9.898667-118.058666-19.584a108.629333 108.629333 0 0 1-20.181334-120.106667l29.226667 13.056-29.226667-13.056 314.154667-704.426666z" p-id="2065" fill="#000000"></path></svg>